<svg width="45" height="47" viewBox="0 0 45 47" fill="none" xmlns="http://www.w3.org/2000/svg">
<path d="M25.6037 40.3617C25.2773 40.9333 24.809 41.4077 24.2455 41.7375C23.6819 42.0673 23.043 42.2409 22.3927 42.2409C21.7424 42.2409 21.1035 42.0673 20.54 41.7375C19.9764 41.4077 19.5081 40.9333 19.1818 40.3617M33.5289 15.845C33.5289 12.844 32.3557 9.96585 30.2672 7.8438C28.1788 5.72176 25.3462 4.5296 22.3927 4.5296C19.4392 4.5296 16.6066 5.72176 14.5182 7.8438C12.4298 9.96585 11.2565 12.844 11.2565 15.845C11.2565 29.0463 5.68835 32.8181 5.68835 32.8181H39.0971C39.0971 32.8181 33.5289 29.0463 33.5289 15.845Z" stroke="#1E1E1E" stroke-width="2.5" stroke-linecap="round" stroke-linejoin="round"/>
</svg>
