<svg width="116" height="118" viewBox="0 0 116 118" fill="none" xmlns="http://www.w3.org/2000/svg">
<mask id="mask0_3_130" style="mask-type:luminance" maskUnits="userSpaceOnUse" x="0" y="0" width="116" height="118">
<path d="M115.763 0.315369H0.688354V117.241H115.763V0.315369Z" fill="white"/>
</mask>
<g mask="url(#mask0_3_130)">
<path d="M58.4113 4.08716L112.051 58.1351L58.0382 113.469L4.40051 59.4194L58.4113 4.08716Z" stroke="black" stroke-width="4" stroke-miterlimit="10" stroke-linejoin="round"/>
<path d="M112.051 58.7783H58.2256" stroke="black" stroke-width="4" stroke-miterlimit="10" stroke-linejoin="round"/>
<path d="M56.5125 58.7782C56.5125 57.8259 57.279 57.0545 58.2256 57.0545C59.1703 57.0545 59.9368 57.8259 59.9368 58.7782C59.9368 59.7306 59.1703 60.502 58.2256 60.502C57.279 60.502 56.5125 59.7306 56.5125 58.7782Z" fill="white" stroke="black" stroke-width="4" stroke-miterlimit="10" stroke-linejoin="round"/>
<path d="M41.77 44.3832L34.1417 51.3346L27.1259 58.4312L36.1871 67.542L41.7867 73.1733" stroke="black" stroke-width="4" stroke-miterlimit="10" stroke-linejoin="round"/>
<path d="M56.5125 57.99C56.5125 42.1956 68.9461 29.3903 84.2825 29.3903C99.6171 29.3903 112.051 42.1956 112.051 57.99C112.051 73.7825 99.6171 86.5877 84.2825 86.5877C68.9461 86.5877 56.5125 73.7825 56.5125 57.99Z" stroke="black" stroke-width="4" stroke-miterlimit="10" stroke-linejoin="round"/>
</g>
</svg>
